<svg xmlns="http://www.w3.org/2000/svg" xmlns:xlink="http://www.w3.org/1999/xlink" width="1360" zoomAndPan="magnify" viewBox="0 0 1500 1499.999933" height="594" preserveAspectRatio="xMidYMid meet" version="1.0"><defs><g/><clipPath id="48c667889b"><path d="M 207.691406 527.542969 L 644.191406 527.542969 L 644.191406 972.292969 L 207.691406 972.292969 Z M 207.691406 527.542969 " clip-rule="nonzero"/></clipPath></defs><path fill="#a27f50" d="M 219.945312 586.429688 C 221.285156 586.429688 222.621094 586.429688 223.957031 586.429688 C 223.957031 587.585938 223.957031 588.835938 223.957031 589.992188 C 223.957031 596.675781 223.957031 603.355469 223.957031 610.039062 C 220.304688 610.039062 216.738281 609.949219 213.085938 610.039062 C 212.910156 610.039062 212.640625 610.039062 212.464844 610.039062 C 211.929688 610.039062 211.574219 610.214844 211.304688 610.484375 C 211.304688 606.5625 211.304688 602.734375 211.304688 598.8125 C 211.304688 594.714844 211.660156 590.527344 211.394531 586.429688 C 214.246094 586.429688 217.097656 586.429688 219.945312 586.429688 Z M 380.664062 968.714844 C 380.574219 968.714844 380.398438 968.714844 380.308594 968.714844 C 379.953125 968.714844 359.640625 968.535156 333.179688 968.355469 L 335.675781 968.714844 C 335.40625 968.714844 335.050781 968.714844 334.785156 968.714844 C 323.738281 968.714844 312.6875 968.714844 301.640625 968.714844 C 288.277344 968.714844 274.828125 968.714844 261.460938 968.714844 C 249.882812 968.714844 238.300781 968.714844 226.71875 968.714844 C 222.886719 968.714844 219.054688 968.714844 215.226562 968.714844 C 213.976562 968.714844 212.640625 968.625 211.304688 968.625 C 211.304688 963.191406 211.304688 957.667969 211.304688 952.230469 L 211.75 952.320312 C 211.574219 944.214844 211.304688 932.542969 211.304688 932.453125 C 211.304688 929.335938 211.304688 926.308594 211.304688 923.1875 C 211.304688 914.726562 211.304688 906.351562 211.304688 897.886719 C 211.304688 885.414062 211.304688 872.851562 211.304688 860.378906 C 211.304688 845.144531 211.304688 830 211.304688 814.765625 C 211.304688 798.105469 211.304688 781.445312 211.304688 764.789062 C 211.304688 747.949219 211.304688 731.109375 211.304688 714.363281 C 211.304688 698.683594 211.304688 683.003906 211.304688 667.324219 C 211.304688 654.046875 211.304688 640.683594 211.304688 627.410156 C 211.304688 622.601562 211.304688 617.878906 211.304688 613.066406 C 211.574219 613.335938 211.929688 613.511719 212.464844 613.511719 C 215.9375 613.511719 219.324219 613.511719 222.796875 613.511719 C 223.242188 613.511719 223.597656 613.511719 224.046875 613.511719 C 224.046875 624.648438 224.046875 635.785156 224.046875 646.921875 C 224.046875 669.816406 224.046875 692.714844 224.046875 715.519531 C 224.046875 735.296875 224.046875 755.078125 224.046875 774.855469 C 224.046875 784.476562 223.6875 794.097656 224.046875 803.71875 C 224.046875 803.808594 224.046875 803.988281 224.046875 804.074219 C 224.046875 805.144531 224.9375 805.769531 225.738281 805.769531 C 226.628906 805.769531 227.429688 805.234375 227.429688 804.074219 C 227.429688 796.148438 227.429688 788.308594 227.429688 780.378906 C 227.429688 761.402344 227.429688 742.425781 227.429688 723.449219 C 227.429688 700.554688 227.429688 677.65625 227.429688 654.851562 C 227.429688 635.074219 227.429688 615.292969 227.429688 595.515625 C 227.429688 595.160156 227.429688 594.894531 227.429688 594.535156 C 227.699219 594.804688 228.054688 594.980469 228.589844 594.980469 C 232.0625 594.980469 235.449219 594.980469 238.921875 594.980469 C 238.921875 594.980469 239.011719 594.980469 239.011719 594.980469 C 239.011719 602.734375 239.011719 610.484375 239.011719 618.324219 C 239.011719 633.378906 239.011719 648.523438 239.011719 663.582031 C 239.011719 680.152344 239.011719 696.632812 239.011719 713.203125 C 239.011719 729.863281 239.011719 746.613281 239.011719 763.273438 C 239.011719 778.863281 239.011719 794.542969 239.011719 810.132812 C 239.011719 823.320312 239.011719 836.414062 239.011719 849.601562 C 239.011719 859.132812 239.011719 868.578125 239.011719 878.109375 C 239.011719 882.5625 238.921875 887.105469 239.011719 891.5625 C 239.011719 891.738281 239.011719 891.917969 239.011719 892.097656 C 239.011719 894.234375 242.21875 894.324219 242.488281 892.273438 C 242.488281 892.183594 242.488281 892.097656 242.488281 892.097656 C 242.488281 888.976562 242.488281 885.949219 242.488281 882.832031 C 242.488281 874.457031 242.488281 866.082031 242.488281 857.707031 C 242.488281 845.324219 242.488281 832.851562 242.488281 820.46875 C 242.488281 805.410156 242.488281 790.265625 242.488281 775.210938 C 242.488281 758.640625 242.488281 742.160156 242.488281 725.585938 C 242.488281 708.929688 242.488281 692.179688 242.488281 675.519531 C 242.488281 659.929688 242.488281 644.25 242.488281 628.65625 C 242.488281 615.472656 242.488281 602.375 242.488281 589.191406 C 242.488281 584.46875 242.488281 579.746094 242.488281 575.027344 C 242.753906 575.292969 243.109375 575.472656 243.644531 575.472656 C 247.121094 575.472656 250.503906 575.472656 253.980469 575.472656 C 254.425781 575.472656 254.78125 575.472656 255.226562 575.472656 C 255.226562 585.539062 255.226562 595.605469 255.226562 605.671875 C 255.226562 622.601562 255.226562 639.617188 255.226562 656.542969 C 255.226562 664.027344 255.226562 671.511719 255.226562 678.90625 C 255.226562 685.765625 255.226562 692.535156 255.226562 699.394531 C 255.226562 711.511719 255.226562 723.71875 255.226562 735.832031 C 255.226562 753.292969 255.226562 770.667969 255.226562 788.128906 C 255.226562 806.660156 255.226562 825.191406 255.226562 843.71875 C 255.226562 859.132812 255.226562 874.636719 255.226562 890.046875 C 255.226562 891.382812 255.226562 892.71875 255.226562 894.054688 C 255.226562 897.710938 255.226562 901.449219 255.226562 905.101562 C 255.226562 908.042969 255.226562 911.074219 255.226562 914.011719 C 255.226562 914.367188 255.226562 914.726562 255.226562 915.082031 C 255.226562 915.972656 256.027344 916.773438 256.917969 916.773438 C 260.394531 916.773438 263.867188 916.773438 267.34375 916.773438 C 276.695312 916.773438 286.050781 916.773438 295.316406 916.773438 C 309.125 916.773438 323.023438 916.773438 336.832031 916.773438 C 347.96875 916.773438 359.105469 916.773438 370.242188 916.773438 C 376.03125 916.773438 381.734375 916.773438 387.523438 916.773438 C 401.777344 916.773438 416.035156 916.773438 430.289062 916.773438 C 434.476562 916.773438 438.664062 916.773438 442.847656 916.773438 C 461.558594 916.773438 480.355469 916.773438 499.066406 916.773438 C 516.4375 916.773438 533.808594 916.773438 551.09375 916.773438 C 565.792969 916.773438 580.492188 916.773438 595.28125 916.773438 C 605.171875 916.773438 614.972656 916.773438 624.859375 916.773438 C 624.859375 921.316406 624.59375 926.039062 624.769531 930.582031 C 614.613281 930.582031 604.457031 930.582031 594.300781 930.582031 C 585.660156 930.582031 576.929688 930.582031 568.289062 930.582031 C 562.050781 930.582031 555.816406 930.582031 549.578125 930.582031 C 548.597656 930.582031 547.976562 931.296875 547.886719 932.097656 C 547.796875 932.988281 548.332031 934.058594 549.578125 934.058594 C 558.578125 934.058594 567.574219 934.058594 576.574219 934.058594 C 587.710938 934.058594 598.757812 934.058594 609.894531 934.058594 C 609.894531 934.769531 609.894531 935.484375 609.894531 936.285156 C 609.894531 940.917969 609.535156 945.640625 609.804688 950.183594 C 606.953125 950.183594 604.101562 950.183594 601.160156 950.183594 C 591.808594 950.183594 582.453125 950.183594 573.1875 950.183594 C 559.378906 950.183594 545.480469 950.183594 531.671875 950.183594 C 514.746094 950.183594 497.90625 950.183594 480.980469 950.183594 C 462.539062 950.183594 444.097656 950.183594 425.65625 950.183594 C 406.945312 950.183594 388.148438 950.183594 369.4375 950.183594 C 352.066406 950.183594 334.695312 950.183594 317.410156 950.183594 C 302.710938 950.183594 288.011719 950.183594 273.222656 950.183594 C 262.621094 950.183594 252.019531 950.183594 241.507812 950.183594 C 236.875 950.183594 232.152344 949.828125 227.609375 950.09375 C 227.609375 936.464844 227.609375 922.832031 227.609375 909.203125 C 227.609375 886.660156 227.609375 864.03125 227.609375 841.492188 C 227.609375 836.328125 227.609375 831.160156 227.609375 825.992188 C 227.609375 824.921875 226.71875 824.300781 225.914062 824.300781 C 225.023438 824.300781 224.222656 824.832031 224.222656 825.992188 C 224.222656 840.246094 224.222656 854.410156 224.222656 868.664062 C 224.222656 890.9375 224.222656 913.210938 224.222656 935.484375 C 224.222656 935.75 224.222656 936.019531 224.222656 936.375 C 224.222656 941.542969 224.222656 946.707031 224.222656 951.875 C 224.222656 952.765625 225.023438 953.566406 225.914062 953.566406 C 229.390625 953.566406 232.863281 953.566406 236.339844 953.566406 C 245.695312 953.566406 255.046875 953.566406 264.3125 953.566406 C 278.035156 953.566406 291.753906 953.566406 305.472656 953.566406 C 305.5625 953.566406 305.742188 953.566406 305.828125 953.566406 C 322.757812 953.566406 339.59375 953.566406 356.519531 953.566406 C 374.964844 953.566406 393.40625 953.566406 411.847656 953.566406 C 430.554688 953.566406 449.351562 953.566406 468.0625 953.566406 C 485.433594 953.566406 502.808594 953.566406 520.089844 953.566406 C 534.789062 953.566406 549.488281 953.566406 564.277344 953.566406 C 574.167969 953.566406 583.96875 953.566406 593.855469 953.566406 C 593.855469 953.925781 593.855469 954.28125 593.855469 954.636719 C 593.855469 959.269531 593.5 963.992188 593.765625 968.535156 C 587.175781 968.535156 580.582031 968.535156 573.988281 968.535156 C 556.882812 968.535156 539.777344 968.535156 522.671875 968.535156 C 502.003906 968.535156 481.335938 968.535156 460.667969 968.535156 C 442.761719 968.535156 424.851562 968.535156 406.945312 968.535156 C 398.125 968.714844 389.304688 968.355469 380.664062 968.714844 Z M 238.921875 932.363281 C 238.921875 933.253906 239.726562 934.058594 240.617188 934.058594 C 243.109375 934.058594 245.695312 934.058594 248.1875 934.058594 C 255.046875 934.058594 261.820312 934.058594 268.679688 934.058594 C 278.835938 934.058594 288.902344 934.058594 299.058594 934.058594 C 311.351562 934.058594 323.648438 934.058594 335.941406 934.058594 C 349.394531 934.058594 362.847656 934.058594 376.386719 934.058594 C 390.019531 934.058594 403.648438 934.058594 417.28125 934.058594 C 429.929688 934.058594 442.671875 934.058594 455.320312 934.058594 C 466.101562 934.058594 476.792969 934.058594 487.574219 934.058594 C 495.234375 934.058594 502.984375 934.058594 510.648438 934.058594 C 514.300781 934.058594 517.953125 934.148438 521.605469 934.058594 C 521.78125 934.058594 521.960938 934.058594 522.050781 934.058594 C 524.277344 934.058594 524.277344 930.582031 522.050781 930.582031 C 519.554688 930.582031 516.972656 930.582031 514.476562 930.582031 C 511.359375 930.582031 508.242188 930.582031 505.125 930.582031 C 501.382812 930.582031 497.730469 930.582031 493.988281 930.582031 C 483.832031 930.582031 473.761719 930.582031 463.605469 930.582031 C 451.3125 930.582031 439.019531 930.582031 426.722656 930.582031 C 413.273438 930.582031 399.820312 930.582031 386.277344 930.582031 C 372.648438 930.582031 359.015625 930.582031 345.386719 930.582031 C 332.734375 930.582031 319.996094 930.582031 307.34375 930.582031 C 296.5625 930.582031 285.875 930.582031 275.09375 930.582031 C 267.433594 930.582031 259.679688 930.582031 252.019531 930.582031 C 248.8125 930.582031 245.515625 930.40625 242.308594 930.492188 C 242.308594 922.652344 242.308594 914.902344 242.308594 907.0625 C 242.308594 905.90625 242.308594 904.746094 242.308594 903.589844 C 242.308594 903.5 242.308594 903.5 242.308594 903.410156 C 242.308594 901.183594 238.832031 901.183594 238.832031 903.410156 C 238.832031 911.785156 238.832031 920.160156 238.832031 928.535156 C 238.921875 929.960938 238.921875 931.207031 238.921875 932.363281 Z M 224.492188 816.546875 C 224.492188 816.992188 224.667969 817.4375 225.023438 817.796875 C 225.292969 818.0625 225.828125 818.328125 226.273438 818.328125 C 226.71875 818.328125 227.164062 818.152344 227.519531 817.796875 C 227.785156 817.4375 228.054688 817.082031 228.054688 816.546875 C 228.054688 815.65625 228.054688 814.675781 228.054688 813.785156 C 228.054688 813.699219 228.054688 813.519531 228.054688 813.429688 C 228.054688 812.984375 227.875 812.539062 227.519531 812.183594 C 227.253906 811.914062 226.71875 811.648438 226.273438 811.648438 C 225.828125 811.648438 225.382812 811.828125 225.023438 812.183594 C 224.757812 812.539062 224.492188 812.894531 224.492188 813.429688 C 224.492188 814.320312 224.492188 815.300781 224.492188 816.191406 C 224.492188 816.28125 224.492188 816.460938 224.492188 816.546875 Z M 227.609375 567.988281 C 227.785156 570.570312 227.519531 573.421875 227.519531 575.917969 C 227.519531 581.261719 227.519531 586.609375 227.519531 592.042969 C 227.785156 591.773438 228.144531 591.597656 228.675781 591.597656 C 228.855469 591.597656 229.125 591.597656 229.300781 591.597656 C 232.507812 591.507812 235.804688 591.597656 239.011719 591.597656 C 239.011719 588.121094 239.011719 584.558594 239.011719 581.085938 C 239.011719 576.71875 239.011719 572.351562 239.011719 567.988281 C 238.03125 567.988281 237.140625 567.988281 236.160156 567.988281 C 233.222656 567.988281 230.460938 567.988281 227.609375 567.988281 Z M 242.488281 548.386719 C 242.488281 549.546875 242.398438 550.703125 242.398438 551.863281 C 242.398438 554.800781 242.398438 557.742188 242.398438 560.683594 C 242.398438 564.601562 242.398438 568.523438 242.398438 572.441406 C 242.664062 572.175781 243.019531 571.996094 243.554688 571.996094 C 243.734375 571.996094 244 571.996094 244.179688 571.996094 C 247.832031 571.90625 251.394531 571.996094 255.046875 571.996094 C 255.046875 565.851562 255.046875 559.613281 255.046875 553.464844 C 255.046875 551.773438 255.046875 550.082031 255.046875 548.386719 C 253.710938 548.386719 252.375 548.386719 251.039062 548.386719 C 248.1875 548.386719 245.335938 548.386719 242.488281 548.386719 Z M 640.808594 611.730469 C 640.808594 608.34375 640.808594 604.960938 640.808594 601.574219 C 640.808594 587.140625 640.808594 572.621094 640.808594 558.1875 C 635.996094 558.277344 631.183594 558.1875 626.464844 558.1875 C 615.949219 558.1875 605.527344 558.1875 595.015625 558.1875 C 580.402344 558.1875 565.882812 558.1875 551.273438 558.1875 C 534.078125 558.1875 516.882812 558.1875 499.6875 558.1875 C 481.15625 558.1875 462.539062 558.1875 444.007812 558.1875 C 425.746094 558.1875 407.480469 558.1875 389.21875 558.1875 C 372.46875 558.1875 355.71875 558.1875 338.972656 558.1875 C 325.25 558.1875 311.53125 558.1875 297.8125 558.1875 C 288.546875 558.1875 279.28125 558.1875 270.015625 558.1875 C 266.539062 558.1875 263.15625 558.1875 259.679688 558.1875 C 259.144531 558.1875 258.789062 558.011719 258.523438 557.742188 C 258.523438 559.96875 258.523438 562.195312 258.523438 564.511719 C 258.523438 582.777344 258.523438 601.039062 258.523438 619.214844 C 258.523438 634.628906 258.523438 649.949219 258.523438 665.363281 C 258.523438 673.558594 258.523438 681.753906 258.523438 689.953125 C 258.523438 695.386719 258.523438 700.730469 258.523438 706.167969 C 258.523438 719.886719 258.523438 733.605469 258.523438 747.324219 C 258.523438 765.5 258.523438 783.585938 258.523438 801.757812 C 258.523438 819.933594 258.523438 838.109375 258.523438 856.191406 C 258.523438 870.179688 258.523438 884.167969 258.523438 898.242188 C 258.523438 903.320312 258.523438 908.3125 258.523438 913.390625 C 263.15625 913.121094 267.878906 913.476562 272.421875 913.476562 C 283.023438 913.476562 293.625 913.476562 304.136719 913.476562 C 318.835938 913.476562 333.535156 913.476562 348.324219 913.476562 C 365.699219 913.476562 383.070312 913.476562 400.355469 913.476562 C 419.0625 913.476562 437.859375 913.476562 456.570312 913.476562 C 475.011719 913.476562 493.453125 913.476562 511.894531 913.476562 C 528.820312 913.476562 545.660156 913.476562 562.585938 913.476562 C 576.394531 913.476562 590.292969 913.476562 604.101562 913.476562 C 613.457031 913.476562 622.8125 913.476562 632.074219 913.476562 C 634.925781 913.476562 637.777344 913.476562 640.71875 913.476562 C 640.71875 912.675781 640.808594 911.785156 640.808594 911.074219 C 640.808594 908.667969 640.808594 906.351562 640.808594 903.945312 C 640.808594 896.285156 640.808594 888.621094 640.808594 880.960938 C 640.808594 870.359375 640.808594 859.757812 640.808594 849.15625 C 640.808594 836.59375 640.808594 824.121094 640.808594 811.558594 C 640.808594 798.019531 640.808594 784.566406 640.808594 771.023438 C 640.808594 757.75 640.808594 744.386719 640.808594 731.109375 C 640.808594 718.90625 640.808594 706.699219 640.808594 694.496094 C 640.808594 684.515625 640.808594 674.539062 640.808594 664.648438 C 640.808594 657.878906 640.808594 651.199219 640.808594 644.425781 C 640.808594 641.933594 640.808594 639.4375 640.808594 636.945312 C 640.808594 635.875 641.699219 635.25 642.5 635.25 L 642.5 632.3125 C 642.410156 632.3125 642.410156 632.3125 642.320312 632.3125 C 641.875 632.3125 641.429688 632.132812 641.074219 631.777344 C 640.71875 631.417969 640.539062 630.972656 640.539062 630.527344 C 640.539062 630.441406 640.539062 630.261719 640.539062 630.171875 C 640.539062 629.28125 640.539062 628.300781 640.539062 627.410156 C 640.539062 626.964844 640.71875 626.519531 641.074219 626.164062 C 641.339844 625.808594 641.875 625.71875 642.320312 625.628906 C 642.410156 625.628906 642.410156 625.628906 642.5 625.628906 L 642.5 613.421875 C 641.699219 613.421875 640.808594 612.800781 640.808594 611.730469 Z M 259.679688 554.714844 C 259.144531 554.714844 258.789062 554.890625 258.523438 555.160156 C 258.523438 547.140625 258.523438 539.121094 258.523438 531.105469 C 261.375 531.105469 264.3125 531.105469 267.164062 531.105469 C 276.519531 531.105469 285.875 531.105469 295.136719 531.105469 C 308.949219 531.105469 322.84375 531.105469 336.65625 531.105469 C 353.582031 531.105469 370.417969 531.105469 387.347656 531.105469 C 405.789062 531.105469 424.230469 531.105469 442.671875 531.105469 C 461.378906 531.105469 480.179688 531.105469 498.886719 531.105469 C 516.257812 531.105469 533.632812 531.105469 550.914062 531.105469 C 565.613281 531.105469 580.316406 531.105469 595.105469 531.105469 C 605.707031 531.105469 616.308594 531.105469 626.820312 531.105469 C 631.453125 531.105469 636.175781 531.460938 640.71875 531.195312 C 640.71875 539.035156 640.71875 546.875 640.71875 554.714844 C 637.6875 554.714844 634.660156 554.714844 631.542969 554.714844 C 622.277344 554.714844 613.011719 554.714844 603.746094 554.714844 C 590.027344 554.714844 576.304688 554.714844 562.585938 554.714844 C 545.835938 554.714844 529.089844 554.714844 512.339844 554.714844 C 494.074219 554.714844 475.8125 554.714844 457.550781 554.714844 C 439.019531 554.714844 420.398438 554.714844 401.867188 554.714844 C 384.671875 554.714844 367.480469 554.714844 350.285156 554.714844 C 335.675781 554.714844 321.152344 554.714844 306.542969 554.714844 C 296.03125 554.714844 285.605469 554.714844 275.09375 554.714844 C 270.105469 554.714844 265.203125 554.625 260.214844 554.714844 C 260.125 554.714844 259.949219 554.714844 259.679688 554.714844 Z M 615.238281 548.65625 L 619.15625 548.65625 L 619.15625 546.695312 L 621.117188 546.695312 L 621.117188 544.734375 L 623.078125 544.734375 L 623.078125 546.695312 L 625.039062 546.695312 L 625.039062 548.65625 L 628.957031 548.65625 L 628.957031 546.695312 L 626.996094 546.695312 L 626.996094 544.734375 L 625.039062 544.734375 L 625.039062 540.816406 L 626.996094 540.816406 L 626.996094 538.855469 L 628.957031 538.855469 L 628.957031 536.894531 L 625.039062 536.894531 L 625.039062 538.855469 L 623.078125 538.855469 L 623.078125 540.816406 L 621.207031 540.816406 L 621.207031 538.855469 L 619.246094 538.855469 L 619.246094 536.894531 L 615.328125 536.894531 L 615.328125 538.855469 L 617.285156 538.855469 L 617.285156 540.816406 L 619.246094 540.816406 L 619.246094 544.734375 L 617.285156 544.734375 L 617.285156 546.695312 L 615.328125 546.695312 L 615.328125 548.65625 Z M 615.238281 548.65625 " fill-opacity="1" fill-rule="nonzero"/><g clip-path="url(#48c667889b)"><path fill="#000000" d="M 354.738281 972.097656 C 352.511719 972.097656 352.511719 968.625 354.738281 968.625 C 356.96875 968.714844 356.96875 972.097656 354.738281 972.097656 Z M 301.640625 968.714844 C 288.277344 968.714844 274.824219 968.714844 261.460938 968.714844 C 249.882812 968.714844 238.300781 968.714844 226.71875 968.714844 C 222.886719 968.714844 219.054688 968.714844 215.226562 968.714844 C 213.976562 968.714844 212.640625 968.625 211.304688 968.625 C 211.304688 963.191406 211.304688 957.667969 211.304688 952.230469 C 211.304688 952.144531 211.304688 952.054688 211.304688 951.964844 C 211.304688 949.738281 207.832031 949.738281 207.832031 951.964844 C 207.832031 958.113281 207.832031 964.257812 207.832031 970.40625 C 207.832031 971.296875 208.632812 972.097656 209.523438 972.097656 C 214.15625 972.097656 218.789062 972.097656 223.421875 972.097656 C 234.46875 972.097656 245.515625 972.097656 256.5625 972.097656 C 269.925781 972.097656 283.378906 972.097656 296.742188 972.097656 C 308.324219 972.097656 319.90625 972.097656 331.488281 972.097656 C 337.101562 972.097656 342.800781 972.277344 348.414062 972.097656 C 348.503906 972.097656 348.59375 972.097656 348.679688 972.097656 C 350.910156 972.097656 350.910156 968.625 348.679688 968.625 C 344.316406 968.625 339.949219 968.625 335.675781 968.625 C 335.40625 968.625 335.050781 968.625 334.785156 968.625 C 323.738281 968.714844 312.6875 968.714844 301.640625 968.714844 Z M 240.703125 934.148438 C 243.199219 934.148438 245.78125 934.148438 248.277344 934.148438 C 255.136719 934.148438 261.90625 934.148438 268.769531 934.148438 C 278.925781 934.148438 288.992188 934.148438 299.148438 934.148438 C 311.441406 934.148438 323.738281 934.148438 336.03125 934.148438 C 349.484375 934.148438 362.9375 934.148438 376.476562 934.148438 C 390.109375 934.148438 403.738281 934.148438 417.371094 934.148438 C 430.019531 934.148438 442.761719 934.148438 455.410156 934.148438 C 466.191406 934.148438 476.882812 934.148438 487.660156 934.148438 C 495.324219 934.148438 503.074219 934.148438 510.734375 934.148438 C 514.386719 934.148438 518.042969 934.234375 521.695312 934.148438 C 521.871094 934.148438 522.050781 934.148438 522.140625 934.148438 C 524.367188 934.148438 524.367188 930.671875 522.140625 930.671875 C 519.644531 930.671875 517.0625 930.671875 514.566406 930.671875 C 511.449219 930.671875 508.332031 930.671875 505.210938 930.671875 C 501.46875 930.671875 497.816406 930.671875 494.074219 930.671875 C 483.917969 930.671875 473.851562 930.671875 463.695312 930.671875 C 451.402344 930.671875 439.109375 930.671875 426.8125 930.671875 C 413.359375 930.671875 399.90625 930.671875 386.367188 930.671875 C 372.734375 930.671875 359.105469 930.671875 345.472656 930.671875 C 332.824219 930.671875 320.082031 930.671875 307.433594 930.671875 C 296.652344 930.671875 285.960938 930.671875 275.183594 930.671875 C 267.519531 930.671875 259.769531 930.671875 252.109375 930.671875 C 248.902344 930.671875 245.605469 930.492188 242.398438 930.582031 C 242.398438 922.742188 242.398438 914.992188 242.398438 907.152344 C 242.398438 905.996094 242.398438 904.835938 242.398438 903.679688 C 242.398438 903.589844 242.398438 903.589844 242.398438 903.5 C 242.398438 901.273438 238.921875 901.273438 238.921875 903.5 C 238.921875 911.875 238.921875 920.25 238.921875 928.625 C 238.921875 929.871094 238.921875 931.027344 238.921875 932.277344 C 238.921875 933.34375 239.726562 934.148438 240.703125 934.148438 Z M 644.28125 648.078125 C 644.28125 655.742188 644.28125 663.402344 644.28125 671.066406 C 644.28125 681.667969 644.28125 692.269531 644.28125 702.871094 C 644.28125 715.429688 644.28125 727.902344 644.28125 740.464844 C 644.28125 754.007812 644.28125 767.460938 644.28125 781 C 644.28125 794.277344 644.28125 807.640625 644.28125 820.914062 C 644.28125 833.117188 644.28125 845.324219 644.28125 857.53125 C 644.28125 867.507812 644.28125 877.484375 644.28125 887.375 C 644.28125 894.144531 644.28125 900.828125 644.28125 907.597656 C 644.28125 910.09375 644.28125 912.585938 644.28125 915.082031 C 644.28125 916.0625 643.480469 916.773438 642.589844 916.773438 C 642.410156 916.773438 642.144531 916.773438 641.964844 916.773438 C 637.421875 916.863281 632.789062 916.773438 628.246094 916.773438 C 628.246094 918.46875 628.246094 920.25 628.246094 921.941406 C 628.246094 925.414062 628.246094 928.890625 628.246094 932.363281 C 628.246094 933.34375 627.441406 934.058594 626.550781 934.058594 C 622.1875 934.058594 617.734375 934.058594 613.367188 934.058594 C 613.367188 934.058594 613.367188 934.058594 613.277344 934.058594 C 613.277344 936.550781 613.277344 939.046875 613.277344 941.542969 C 613.277344 945.015625 613.277344 948.488281 613.277344 951.964844 C 613.277344 952.945312 612.476562 953.65625 611.585938 953.65625 C 611.40625 953.65625 611.140625 953.65625 610.960938 953.65625 C 606.417969 953.746094 601.785156 953.65625 597.242188 953.65625 C 597.242188 955.796875 597.242188 957.84375 597.242188 959.984375 C 597.242188 963.457031 597.242188 966.933594 597.242188 970.40625 C 597.242188 971.386719 596.441406 972.097656 595.550781 972.097656 C 595.460938 972.097656 595.28125 972.097656 595.191406 972.097656 C 586.550781 972.457031 577.730469 972.097656 569.089844 972.097656 C 551.183594 972.097656 533.277344 972.097656 515.367188 972.097656 C 494.699219 972.097656 474.03125 972.097656 453.363281 972.097656 C 436.257812 972.097656 419.152344 972.097656 402.046875 972.097656 C 394.828125 972.097656 387.703125 972.097656 380.488281 972.097656 C 379.238281 972.097656 378.703125 970.941406 378.882812 970.050781 C 379.0625 969.335938 379.59375 968.714844 380.488281 968.714844 C 380.574219 968.714844 380.753906 968.714844 380.84375 968.714844 C 389.484375 968.355469 398.304688 968.714844 406.945312 968.714844 C 424.851562 968.714844 442.761719 968.714844 460.667969 968.714844 C 481.335938 968.714844 502.003906 968.714844 522.671875 968.714844 C 539.777344 968.714844 556.882812 968.714844 573.988281 968.714844 C 580.582031 968.714844 587.175781 968.714844 593.765625 968.714844 C 593.5 964.082031 593.855469 959.359375 593.855469 954.816406 C 593.855469 954.460938 593.855469 954.101562 593.855469 953.746094 C 583.96875 953.746094 574.167969 953.746094 564.277344 953.746094 C 549.578125 953.746094 534.878906 953.746094 520.089844 953.746094 C 502.71875 953.746094 485.34375 953.746094 468.0625 953.746094 C 449.351562 953.746094 430.554688 953.746094 411.847656 953.746094 C 393.40625 953.746094 374.964844 953.746094 356.519531 953.746094 C 339.59375 953.746094 322.757812 953.746094 305.828125 953.746094 C 305.742188 953.746094 305.5625 953.746094 305.472656 953.746094 C 291.753906 953.746094 278.035156 953.746094 264.3125 953.746094 C 254.960938 953.746094 245.605469 953.746094 236.339844 953.746094 C 232.863281 953.746094 229.390625 953.746094 225.914062 953.746094 C 224.9375 953.746094 224.222656 952.945312 224.222656 952.054688 C 224.222656 946.886719 224.222656 941.71875 224.222656 936.550781 C 224.222656 936.285156 224.222656 936.019531 224.222656 935.660156 C 224.222656 913.390625 224.222656 891.117188 224.222656 868.84375 C 224.222656 854.589844 224.222656 840.425781 224.222656 826.171875 C 224.222656 825.101562 225.113281 824.476562 225.914062 824.476562 C 226.808594 824.476562 227.609375 825.011719 227.609375 826.171875 C 227.609375 831.335938 227.609375 836.503906 227.609375 841.671875 C 227.609375 864.210938 227.609375 886.839844 227.609375 909.378906 C 227.609375 923.011719 227.609375 936.640625 227.609375 950.273438 C 232.242188 950.003906 236.964844 950.359375 241.507812 950.359375 C 252.109375 950.359375 262.710938 950.359375 273.222656 950.359375 C 287.921875 950.359375 302.621094 950.359375 317.410156 950.359375 C 334.785156 950.359375 352.15625 950.359375 369.441406 950.359375 C 388.148438 950.359375 406.945312 950.359375 425.65625 950.359375 C 444.097656 950.359375 462.539062 950.359375 480.980469 950.359375 C 497.90625 950.359375 514.746094 950.359375 531.671875 950.359375 C 545.480469 950.359375 559.378906 950.359375 573.1875 950.359375 C 582.542969 950.359375 591.898438 950.359375 601.160156 950.359375 C 604.011719 950.359375 606.863281 950.359375 609.804688 950.359375 C 609.535156 945.726562 609.894531 941.007812 609.894531 936.464844 C 609.894531 935.75 609.894531 935.039062 609.894531 934.234375 C 598.757812 934.234375 587.710938 934.234375 576.574219 934.234375 C 567.574219 934.234375 558.578125 934.234375 549.578125 934.234375 C 548.332031 934.234375 547.796875 933.253906 547.886719 932.277344 C 547.976562 931.472656 548.511719 930.761719 549.578125 930.761719 C 555.816406 930.761719 562.050781 930.761719 568.289062 930.761719 C 576.929688 930.761719 585.660156 930.761719 594.300781 930.761719 C 604.457031 930.761719 614.613281 930.761719 624.769531 930.761719 C 624.503906 926.21875 624.859375 921.496094 624.859375 916.953125 C 614.972656 916.953125 605.171875 916.953125 595.28125 916.953125 C 580.582031 916.953125 565.882812 916.953125 551.09375 916.953125 C 533.722656 916.953125 516.347656 916.953125 499.066406 916.953125 C 480.355469 916.953125 461.558594 916.953125 442.847656 916.953125 C 438.664062 916.953125 434.476562 916.953125 430.289062 916.953125 C 416.035156 916.953125 401.777344 916.953125 387.523438 916.953125 C 381.734375 916.953125 376.03125 916.953125 370.242188 916.953125 C 359.105469 916.953125 347.96875 916.953125 336.832031 916.953125 C 323.023438 916.953125 309.125 916.953125 295.316406 916.953125 C 285.960938 916.953125 276.609375 916.953125 267.34375 916.953125 C 263.867188 916.953125 260.394531 916.953125 256.917969 916.953125 C 255.9375 916.953125 255.226562 916.152344 255.226562 915.257812 C 255.226562 914.902344 255.226562 914.546875 255.226562 914.191406 C 255.226562 911.25 255.226562 908.222656 255.226562 905.28125 C 255.226562 901.628906 255.226562 897.886719 255.226562 894.234375 C 255.226562 892.898438 255.226562 891.5625 255.226562 890.226562 C 255.226562 874.8125 255.226562 859.3125 255.226562 843.898438 C 255.226562 825.367188 255.226562 806.835938 255.226562 788.308594 C 255.226562 770.84375 255.226562 753.472656 255.226562 736.011719 C 255.226562 723.894531 255.226562 711.691406 255.226562 699.574219 C 255.226562 692.714844 255.226562 685.941406 255.226562 679.082031 C 255.226562 671.597656 255.226562 664.117188 255.226562 656.722656 C 255.226562 639.792969 255.226562 622.777344 255.226562 605.851562 C 255.226562 595.785156 255.226562 585.71875 255.226562 575.648438 C 254.78125 575.648438 254.425781 575.648438 253.980469 575.648438 C 250.503906 575.648438 247.121094 575.648438 243.644531 575.648438 C 243.109375 575.648438 242.753906 575.472656 242.488281 575.203125 C 242.488281 579.925781 242.488281 584.648438 242.488281 589.371094 C 242.488281 602.554688 242.488281 615.652344 242.488281 628.835938 C 242.488281 644.425781 242.488281 660.105469 242.488281 675.699219 C 242.488281 692.355469 242.488281 709.105469 242.488281 725.765625 C 242.488281 742.335938 242.488281 758.816406 242.488281 775.390625 C 242.488281 790.445312 242.488281 805.589844 242.488281 820.644531 C 242.488281 833.03125 242.488281 845.503906 242.488281 857.886719 C 242.488281 866.261719 242.488281 874.632812 242.488281 883.007812 C 242.488281 886.128906 242.488281 889.15625 242.488281 892.273438 C 242.488281 892.363281 242.488281 892.453125 242.488281 892.453125 C 242.21875 894.414062 239.011719 894.414062 239.011719 892.273438 C 239.011719 892.097656 239.011719 891.917969 239.011719 891.738281 C 238.921875 887.285156 239.011719 882.742188 239.011719 878.289062 C 239.011719 868.753906 239.011719 859.3125 239.011719 849.777344 C 239.011719 836.59375 239.011719 823.496094 239.011719 810.3125 C 239.011719 794.722656 239.011719 779.042969 239.011719 763.449219 C 239.011719 746.789062 239.011719 730.042969 239.011719 713.382812 C 239.011719 696.8125 239.011719 680.328125 239.011719 663.757812 C 239.011719 648.703125 239.011719 633.558594 239.011719 618.5 C 239.011719 610.75 239.011719 603 239.011719 595.160156 C 239.011719 595.160156 238.921875 595.160156 238.921875 595.160156 C 235.449219 595.160156 232.0625 595.160156 228.589844 595.160156 C 228.054688 595.160156 227.699219 594.980469 227.429688 594.714844 C 227.429688 595.070312 227.429688 595.339844 227.429688 595.695312 C 227.429688 615.472656 227.429688 635.25 227.429688 655.027344 C 227.429688 677.925781 227.429688 700.820312 227.429688 723.628906 C 227.429688 742.605469 227.429688 761.578125 227.429688 780.554688 C 227.429688 788.484375 227.429688 796.324219 227.429688 804.253906 C 227.429688 805.324219 226.539062 805.945312 225.738281 805.945312 C 224.847656 805.945312 224.046875 805.410156 224.046875 804.253906 C 224.046875 804.164062 224.046875 803.988281 224.046875 803.898438 C 223.6875 794.277344 224.046875 784.652344 224.046875 775.03125 C 224.046875 755.253906 224.046875 735.476562 224.046875 715.699219 C 224.046875 692.800781 224.046875 669.90625 224.046875 647.097656 C 224.046875 635.964844 224.046875 624.828125 224.046875 613.691406 C 223.601562 613.691406 223.242188 613.691406 222.796875 613.691406 C 219.324219 613.691406 215.9375 613.691406 212.464844 613.691406 C 211.929688 613.691406 211.574219 613.511719 211.304688 613.246094 C 211.304688 618.054688 211.304688 622.777344 211.304688 627.589844 C 211.304688 640.863281 211.304688 654.226562 211.304688 667.5 C 211.304688 683.179688 211.304688 698.859375 211.304688 714.539062 C 211.304688 731.378906 211.304688 748.214844 211.304688 764.964844 C 211.304688 781.625 211.304688 798.285156 211.304688 814.945312 C 211.304688 830.179688 211.304688 845.324219 211.304688 860.558594 C 211.304688 873.03125 211.304688 885.59375 211.304688 898.066406 C 211.304688 906.527344 211.304688 914.902344 211.304688 923.367188 C 211.304688 926.484375 211.304688 929.515625 211.304688 932.632812 C 211.304688 932.808594 211.304688 932.898438 211.304688 932.988281 C 210.949219 934.859375 207.917969 934.679688 207.917969 932.632812 C 207.917969 932.453125 207.917969 932.277344 207.917969 932.097656 C 207.832031 927.554688 207.917969 923.097656 207.917969 918.554688 C 207.917969 909.023438 207.917969 899.492188 207.917969 889.957031 C 207.917969 876.683594 207.917969 863.320312 207.917969 850.046875 C 207.917969 834.367188 207.917969 818.6875 207.917969 803.007812 C 207.917969 786.167969 207.917969 769.332031 207.917969 752.582031 C 207.917969 735.921875 207.917969 719.261719 207.917969 702.601562 C 207.917969 687.367188 207.917969 672.222656 207.917969 656.988281 C 207.917969 644.515625 207.917969 631.953125 207.917969 619.480469 C 207.917969 611.019531 207.917969 602.644531 207.917969 594.179688 C 207.917969 591.0625 207.917969 588.03125 207.917969 584.914062 C 207.917969 583.933594 208.722656 583.222656 209.613281 583.222656 C 209.789062 583.222656 210.058594 583.222656 210.234375 583.222656 C 214.78125 583.132812 219.414062 583.222656 223.957031 583.222656 C 223.957031 577.699219 223.957031 572.085938 223.957031 566.5625 C 223.957031 565.582031 224.757812 564.871094 225.648438 564.871094 C 225.828125 564.871094 226.09375 564.871094 226.273438 564.871094 C 230.460938 564.78125 234.648438 564.871094 238.835938 564.871094 C 238.835938 562.019531 238.835938 559.167969 238.835938 556.316406 C 238.835938 553.199219 238.835938 550.171875 238.835938 547.050781 C 238.835938 546.070312 239.636719 545.359375 240.527344 545.359375 C 240.703125 545.359375 240.972656 545.359375 241.148438 545.359375 C 245.695312 545.269531 250.328125 545.359375 254.871094 545.359375 C 254.871094 540.191406 254.871094 535.023438 254.871094 529.859375 C 255.046875 528.433594 255.851562 527.628906 256.828125 527.628906 C 257.007812 527.628906 257.277344 527.628906 257.453125 527.628906 C 262.441406 527.542969 267.433594 527.628906 272.421875 527.628906 C 283.023438 527.628906 293.625 527.628906 304.136719 527.628906 C 318.835938 527.628906 333.535156 527.628906 348.324219 527.628906 C 365.699219 527.628906 383.070312 527.628906 400.355469 527.628906 C 419.0625 527.628906 437.859375 527.628906 456.570312 527.628906 C 475.011719 527.628906 493.453125 527.628906 511.894531 527.628906 C 528.820312 527.628906 545.660156 527.628906 562.585938 527.628906 C 576.394531 527.628906 590.292969 527.628906 604.101562 527.628906 C 613.457031 527.628906 622.8125 527.628906 632.074219 527.628906 C 635.550781 527.628906 639.023438 527.628906 642.5 527.628906 C 643.480469 527.628906 644.191406 528.433594 644.191406 529.324219 C 644.191406 532.707031 644.191406 536.09375 644.191406 539.480469 C 644.191406 554.269531 644.191406 569.058594 644.191406 583.933594 C 644.191406 593.199219 644.191406 602.375 644.191406 611.640625 C 644.191406 612.710938 643.300781 613.335938 642.5 613.335938 C 641.609375 613.335938 640.808594 612.800781 640.808594 611.640625 C 640.808594 608.257812 640.808594 604.871094 640.808594 601.484375 C 640.808594 587.054688 640.808594 572.53125 640.808594 558.097656 C 635.996094 558.1875 631.183594 558.097656 626.464844 558.097656 C 615.949219 558.097656 605.527344 558.097656 595.015625 558.097656 C 580.402344 558.097656 565.882812 558.097656 551.273438 558.097656 C 534.078125 558.097656 516.882812 558.097656 499.6875 558.097656 C 481.15625 558.097656 462.539062 558.097656 444.007812 558.097656 C 425.746094 558.097656 407.480469 558.097656 389.21875 558.097656 C 372.46875 558.097656 355.71875 558.097656 338.972656 558.097656 C 325.25 558.097656 311.53125 558.097656 297.8125 558.097656 C 288.546875 558.097656 279.28125 558.097656 270.015625 558.097656 C 266.539062 558.097656 263.15625 558.097656 259.679688 558.097656 C 259.144531 558.097656 258.789062 557.921875 258.523438 557.652344 C 258.523438 559.878906 258.523438 562.109375 258.523438 564.425781 C 258.523438 582.6875 258.523438 600.953125 258.523438 619.125 C 258.523438 634.539062 258.523438 649.863281 258.523438 665.273438 C 258.523438 673.46875 258.523438 681.667969 258.523438 689.863281 C 258.523438 695.296875 258.523438 700.640625 258.523438 706.078125 C 258.523438 719.796875 258.523438 733.515625 258.523438 747.238281 C 258.523438 765.410156 258.523438 783.496094 258.523438 801.671875 C 258.523438 819.84375 258.523438 838.019531 258.523438 856.105469 C 258.523438 870.089844 258.523438 884.078125 258.523438 898.15625 C 258.523438 903.234375 258.523438 908.222656 258.523438 913.300781 C 263.15625 913.03125 267.878906 913.390625 272.421875 913.390625 C 283.023438 913.390625 293.625 913.390625 304.136719 913.390625 C 318.835938 913.390625 333.535156 913.390625 348.324219 913.390625 C 365.699219 913.390625 383.070312 913.390625 400.355469 913.390625 C 419.0625 913.390625 437.859375 913.390625 456.570312 913.390625 C 475.011719 913.390625 493.453125 913.390625 511.894531 913.390625 C 528.820312 913.390625 545.660156 913.390625 562.585938 913.390625 C 576.394531 913.390625 590.292969 913.390625 604.101562 913.390625 C 613.457031 913.390625 622.8125 913.390625 632.074219 913.390625 C 634.925781 913.390625 637.777344 913.390625 640.71875 913.390625 C 640.71875 912.585938 640.808594 911.695312 640.808594 910.984375 C 640.808594 908.578125 640.808594 906.261719 640.808594 903.855469 C 640.808594 896.195312 640.808594 888.53125 640.808594 880.871094 C 640.808594 870.269531 640.808594 859.667969 640.808594 849.066406 C 640.808594 836.503906 640.808594 824.03125 640.808594 811.46875 C 640.808594 797.929688 640.808594 784.476562 640.808594 770.933594 C 640.808594 757.660156 640.808594 744.296875 640.808594 731.023438 C 640.808594 718.816406 640.808594 706.613281 640.808594 694.40625 C 640.808594 684.429688 640.808594 674.449219 640.808594 664.5625 C 640.808594 657.789062 640.808594 651.109375 640.808594 644.335938 C 640.808594 641.84375 640.808594 639.347656 640.808594 636.855469 C 640.808594 635.785156 641.699219 635.160156 642.5 635.160156 C 643.390625 635.160156 644.191406 635.695312 644.191406 636.855469 C 644.191406 637.03125 644.191406 637.210938 644.191406 637.300781 C 644.371094 640.773438 644.28125 644.425781 644.28125 648.078125 Z M 223.957031 586.429688 C 222.621094 586.429688 221.285156 586.429688 219.945312 586.429688 C 217.097656 586.429688 214.246094 586.429688 211.394531 586.429688 C 211.660156 590.527344 211.304688 594.714844 211.304688 598.8125 C 211.304688 602.734375 211.304688 606.5625 211.304688 610.484375 C 211.574219 610.214844 211.929688 610.039062 212.464844 610.039062 C 212.640625 610.039062 212.910156 610.039062 213.085938 610.039062 C 216.738281 609.949219 220.304688 610.039062 223.957031 610.039062 C 223.957031 603.355469 223.957031 596.675781 223.957031 589.992188 C 223.957031 588.746094 223.957031 587.585938 223.957031 586.429688 Z M 238.921875 567.988281 C 237.941406 567.988281 237.050781 567.988281 236.070312 567.988281 C 233.222656 567.988281 230.371094 567.988281 227.519531 567.988281 C 227.699219 570.570312 227.429688 573.421875 227.429688 575.917969 C 227.429688 581.261719 227.429688 586.609375 227.429688 592.042969 C 227.699219 591.773438 228.054688 591.597656 228.589844 591.597656 C 228.765625 591.597656 229.035156 591.597656 229.210938 591.597656 C 232.417969 591.507812 235.714844 591.597656 238.921875 591.597656 C 238.921875 588.121094 238.921875 584.558594 238.921875 581.085938 C 238.921875 576.71875 238.921875 572.351562 238.921875 567.988281 Z M 255.046875 548.386719 C 253.710938 548.386719 252.375 548.386719 251.039062 548.386719 C 248.1875 548.386719 245.335938 548.386719 242.398438 548.386719 C 242.398438 549.546875 242.308594 550.703125 242.308594 551.863281 C 242.308594 554.800781 242.308594 557.742188 242.308594 560.683594 C 242.308594 564.601562 242.308594 568.523438 242.308594 572.441406 C 242.574219 572.175781 242.933594 571.996094 243.464844 571.996094 C 243.644531 571.996094 243.910156 571.996094 244.089844 571.996094 C 247.742188 571.90625 251.304688 571.996094 254.960938 571.996094 C 254.960938 565.851562 254.960938 559.613281 254.960938 553.464844 C 255.046875 551.773438 255.046875 550.082031 255.046875 548.386719 Z M 258.523438 555.160156 C 258.789062 554.890625 259.144531 554.714844 259.679688 554.714844 C 259.859375 554.714844 260.125 554.714844 260.304688 554.714844 C 265.292969 554.625 270.195312 554.714844 275.183594 554.714844 C 285.695312 554.714844 296.117188 554.714844 306.632812 554.714844 C 321.242188 554.714844 335.761719 554.714844 350.375 554.714844 C 367.570312 554.714844 384.761719 554.714844 401.957031 554.714844 C 420.488281 554.714844 439.109375 554.714844 457.636719 554.714844 C 475.902344 554.714844 494.164062 554.714844 512.429688 554.714844 C 529.175781 554.714844 545.925781 554.714844 562.675781 554.714844 C 576.394531 554.714844 590.113281 554.714844 603.835938 554.714844 C 613.101562 554.714844 622.363281 554.714844 631.628906 554.714844 C 634.660156 554.714844 637.6875 554.714844 640.808594 554.714844 C 640.808594 546.875 640.808594 539.035156 640.808594 531.195312 C 636.175781 531.460938 631.453125 531.105469 626.910156 531.105469 C 616.308594 531.105469 605.707031 531.105469 595.191406 531.105469 C 580.492188 531.105469 565.792969 531.105469 551.003906 531.105469 C 533.632812 531.105469 516.257812 531.105469 498.976562 531.105469 C 480.265625 531.105469 461.46875 531.105469 442.761719 531.105469 C 424.320312 531.105469 405.878906 531.105469 387.4375 531.105469 C 370.507812 531.105469 353.671875 531.105469 336.742188 531.105469 C 322.933594 531.105469 309.035156 531.105469 295.226562 531.105469 C 285.875 531.105469 276.519531 531.105469 267.253906 531.105469 C 264.402344 531.105469 261.460938 531.105469 258.613281 531.105469 C 258.523438 539.121094 258.523438 547.140625 258.523438 555.160156 Z M 641.164062 625.984375 C 640.894531 626.339844 640.628906 626.699219 640.628906 627.234375 C 640.628906 628.125 640.628906 629.105469 640.628906 629.996094 C 640.628906 630.082031 640.628906 630.261719 640.628906 630.351562 C 640.628906 630.796875 640.808594 631.242188 641.164062 631.597656 C 641.429688 631.867188 641.964844 632.132812 642.410156 632.132812 C 642.5 632.132812 642.5 632.132812 642.589844 632.132812 C 643.035156 632.132812 643.390625 631.953125 643.65625 631.6875 C 643.925781 631.332031 644.191406 630.972656 644.191406 630.441406 C 644.191406 629.550781 644.191406 628.570312 644.191406 627.679688 C 644.191406 627.589844 644.191406 627.410156 644.191406 627.320312 C 644.191406 626.875 644.015625 626.429688 643.65625 626.074219 C 643.390625 625.808594 642.945312 625.628906 642.589844 625.539062 C 642.5 625.539062 642.5 625.539062 642.410156 625.539062 C 641.964844 625.539062 641.519531 625.71875 641.164062 625.984375 Z M 226.183594 818.328125 C 226.628906 818.328125 227.074219 818.152344 227.429688 817.796875 C 227.699219 817.4375 227.964844 817.082031 227.964844 816.546875 C 227.964844 815.65625 227.964844 814.675781 227.964844 813.785156 C 227.964844 813.699219 227.964844 813.519531 227.964844 813.429688 C 227.964844 812.984375 227.785156 812.539062 227.429688 812.183594 C 227.164062 811.914062 226.628906 811.648438 226.183594 811.648438 C 225.738281 811.648438 225.292969 811.828125 224.9375 812.183594 C 224.667969 812.539062 224.402344 812.894531 224.402344 813.429688 C 224.402344 814.320312 224.402344 815.300781 224.402344 816.191406 C 224.402344 816.28125 224.402344 816.460938 224.402344 816.546875 C 224.402344 816.992188 224.578125 817.4375 224.9375 817.796875 C 225.292969 818.0625 225.738281 818.328125 226.183594 818.328125 Z M 619.15625 546.695312 L 621.117188 546.695312 L 621.117188 544.734375 L 623.078125 544.734375 L 623.078125 546.695312 L 625.039062 546.695312 L 625.039062 548.65625 L 628.957031 548.65625 L 628.957031 546.695312 L 626.996094 546.695312 L 626.996094 544.734375 L 625.039062 544.734375 L 625.039062 540.816406 L 626.996094 540.816406 L 626.996094 538.855469 L 628.957031 538.855469 L 628.957031 536.894531 L 625.039062 536.894531 L 625.039062 538.855469 L 623.078125 538.855469 L 623.078125 540.816406 L 621.207031 540.816406 L 621.207031 538.855469 L 619.246094 538.855469 L 619.246094 536.894531 L 615.328125 536.894531 L 615.328125 538.855469 L 617.285156 538.855469 L 617.285156 540.816406 L 619.246094 540.816406 L 619.246094 544.734375 L 617.285156 544.734375 L 617.285156 546.695312 L 615.328125 546.695312 L 615.328125 548.65625 L 619.246094 548.65625 L 619.246094 546.695312 Z M 619.15625 546.695312 " fill-opacity="1" fill-rule="nonzero"/></g><g fill="#d2b48c" fill-opacity="1"><g transform="translate(264.466138, 814.87491)"><g><path d="M 74.59375 12.9375 C 61.15625 12.9375 50.066406 11.453125 41.328125 8.484375 C 32.585938 5.515625 25.304688 0.613281 19.484375 -6.21875 C 15.003906 -11.476562 11.476562 -17.800781 8.90625 -25.1875 C 6.332031 -32.582031 5.046875 -40.09375 5.046875 -47.71875 C 5.046875 -54.4375 6.050781 -60.648438 8.0625 -66.359375 C 10.863281 -74.203125 15.285156 -81.398438 21.328125 -87.953125 C 27.378906 -94.503906 35 -99.347656 44.1875 -102.484375 C 51.46875 -104.941406 59.195312 -106.171875 67.375 -106.171875 C 74.3125 -106.171875 80.832031 -105.382812 86.9375 -103.8125 C 93.039062 -102.25 97.773438 -100.515625 101.140625 -98.609375 C 106.285156 -95.585938 110.144531 -92.507812 112.71875 -89.375 C 115.300781 -86.238281 116.59375 -82.710938 116.59375 -78.796875 C 116.59375 -76.109375 116.03125 -73.25 114.90625 -70.21875 C 111.550781 -61.488281 105.671875 -57.125 97.265625 -57.125 C 93.578125 -57.125 88.425781 -58.128906 81.8125 -60.140625 C 79.570312 -60.921875 77.273438 -61.3125 74.921875 -61.3125 C 70.109375 -61.3125 66.101562 -59.800781 62.90625 -56.78125 C 59.71875 -53.757812 58.125 -49.953125 58.125 -45.359375 C 58.125 -40.546875 59.46875 -36.679688 62.15625 -33.765625 C 64.84375 -30.859375 68.765625 -29.40625 73.921875 -29.40625 C 77.273438 -29.40625 80.972656 -30.019531 85.015625 -31.25 C 86.578125 -31.914062 88.816406 -32.25 91.734375 -32.25 C 96.660156 -32.25 101.222656 -30.90625 105.421875 -28.21875 C 109.617188 -25.53125 112.390625 -21.835938 113.734375 -17.140625 C 114.296875 -14.335938 114.578125 -11.925781 114.578125 -9.90625 C 114.578125 -3.53125 111.664062 1.503906 105.84375 5.203125 C 97.4375 10.359375 87.019531 12.9375 74.59375 12.9375 Z M 74.59375 12.9375 "/></g></g></g><g fill="#d2b48c" fill-opacity="1"><g transform="translate(386.098113, 814.87491)"><g><path d="M 64.84375 14.109375 C 46.8125 14.109375 32.335938 9.738281 21.421875 1 C 10.503906 -7.726562 5.046875 -21.894531 5.046875 -41.5 C 5.046875 -60.757812 9.691406 -76.578125 18.984375 -88.953125 C 28.273438 -101.328125 43.5625 -107.515625 64.84375 -107.515625 C 78.957031 -107.515625 90.4375 -104.265625 99.28125 -97.765625 C 108.132812 -91.273438 114.492188 -82.878906 118.359375 -72.578125 C 122.222656 -62.273438 124.15625 -51.019531 124.15625 -38.8125 C 124.15625 -20.21875 118.75 -6.75 107.9375 1.59375 C 97.132812 9.9375 82.769531 14.109375 64.84375 14.109375 Z M 64.6875 -24.53125 C 69.945312 -24.53125 74.394531 -26.375 78.03125 -30.0625 C 81.675781 -33.757812 83.5 -38.242188 83.5 -43.515625 C 83.5 -48.660156 81.648438 -53.082031 77.953125 -56.78125 C 74.253906 -60.476562 69.832031 -62.328125 64.6875 -62.328125 C 59.414062 -62.328125 54.929688 -60.503906 51.234375 -56.859375 C 47.546875 -53.222656 45.703125 -48.773438 45.703125 -43.515625 C 45.703125 -38.242188 47.546875 -33.757812 51.234375 -30.0625 C 54.929688 -26.375 59.414062 -24.53125 64.6875 -24.53125 Z M 64.6875 -24.53125 "/></g></g></g><g fill="#d2b48c" fill-opacity="1"><g transform="translate(515.290079, 814.87491)"><g><path d="M 55.609375 13.9375 C 48.210938 13.9375 41.40625 13.179688 35.1875 11.671875 C 28.976562 10.160156 24.082031 7.894531 20.5 4.875 C 17.25 1.957031 14.695312 -4.648438 12.84375 -14.953125 C 11 -25.253906 10.078125 -36.675781 10.078125 -49.21875 C 10.078125 -59.863281 10.75 -69.523438 12.09375 -78.203125 C 13.4375 -86.878906 15.34375 -92.84375 17.8125 -96.09375 C 19.9375 -99.007812 24.101562 -101.25 30.3125 -102.8125 C 36.53125 -104.382812 43.617188 -105.171875 51.578125 -105.171875 C 58.628906 -105.171875 65.570312 -104.550781 72.40625 -103.3125 C 79.238281 -102.082031 85.234375 -100.238281 90.390625 -97.78125 C 101.253906 -92.625 108.8125 -85.617188 113.0625 -76.765625 C 117.320312 -67.921875 119.453125 -56.554688 119.453125 -42.671875 C 119.453125 -30.128906 117.546875 -19.710938 113.734375 -11.421875 C 109.929688 -3.128906 103.097656 3.140625 93.234375 7.390625 C 88.535156 9.410156 82.828125 11.003906 76.109375 12.171875 C 69.390625 13.347656 62.554688 13.9375 55.609375 13.9375 Z M 62.15625 -23.015625 C 66.082031 -23.015625 69.75 -23.992188 73.15625 -25.953125 C 76.570312 -27.910156 79.257812 -30.597656 81.21875 -34.015625 C 83.1875 -37.429688 84.171875 -41.15625 84.171875 -45.1875 C 84.171875 -49.21875 83.1875 -52.941406 81.21875 -56.359375 C 79.257812 -59.773438 76.570312 -62.460938 73.15625 -64.421875 C 69.75 -66.390625 66.082031 -67.375 62.15625 -67.375 C 58.125 -67.375 54.398438 -66.390625 50.984375 -64.421875 C 47.566406 -62.460938 44.878906 -59.773438 42.921875 -56.359375 C 40.960938 -52.941406 39.984375 -49.21875 39.984375 -45.1875 C 39.984375 -41.15625 40.960938 -37.429688 42.921875 -34.015625 C 44.878906 -30.597656 47.566406 -27.910156 50.984375 -25.953125 C 54.398438 -23.992188 58.125 -23.015625 62.15625 -23.015625 Z M 62.15625 -23.015625 "/></g></g><g transform="translate(639.778069, 814.87491)"><g><path d="M 57.453125 13.609375 C 48.722656 13.609375 40.941406 13.160156 34.109375 12.265625 C 27.273438 11.367188 22.457031 9.910156 19.65625 7.890625 C 17.414062 6.328125 15.675781 3.863281 14.4375 0.5 C 13.207031 -2.851562 12.257812 -7.273438 11.59375 -12.765625 C 10.582031 -22.066406 10.078125 -34.664062 10.078125 -50.5625 C 10.078125 -65.90625 10.582031 -76.488281 11.59375 -82.3125 C 12.257812 -87.25 13.375 -91.253906 14.9375 -94.328125 C 16.507812 -97.410156 18.644531 -99.566406 21.34375 -100.796875 C 24.925781 -102.585938 30.941406 -103.957031 39.390625 -104.90625 C 47.847656 -105.863281 57.0625 -106.34375 67.03125 -106.34375 C 74.757812 -106.34375 81.953125 -106.0625 88.609375 -105.5 C 95.273438 -104.9375 100.175781 -104.207031 103.3125 -103.3125 C 107.238281 -102.082031 110.238281 -100.207031 112.3125 -97.6875 C 114.382812 -95.164062 115.421875 -91.5 115.421875 -86.6875 C 115.421875 -81.644531 114.492188 -77.523438 112.640625 -74.328125 C 110.796875 -71.140625 108.082031 -68.988281 104.5 -67.875 C 104.050781 -67.757812 102.898438 -67.503906 101.046875 -67.109375 C 99.203125 -66.722656 96.40625 -66.359375 92.65625 -66.015625 C 88.90625 -65.679688 84.394531 -65.515625 79.125 -65.515625 C 74.53125 -65.515625 69.378906 -65.6875 63.671875 -66.03125 L 63.671875 -61.15625 C 69.492188 -61.601562 74.867188 -61.828125 79.796875 -61.828125 C 85.066406 -61.828125 89.179688 -61.628906 92.140625 -61.234375 C 95.109375 -60.835938 96.59375 -60.585938 96.59375 -60.484375 C 100.40625 -59.242188 103.265625 -57.671875 105.171875 -55.765625 C 107.078125 -53.867188 108.03125 -50.566406 108.03125 -45.859375 C 108.03125 -41.046875 107.382812 -37.546875 106.09375 -35.359375 C 104.800781 -33.179688 102.140625 -31.363281 98.109375 -29.90625 C 97.773438 -29.789062 96.679688 -29.566406 94.828125 -29.234375 C 92.984375 -28.898438 90.070312 -28.59375 86.09375 -28.3125 C 82.125 -28.03125 77.113281 -27.890625 71.0625 -27.890625 L 64.515625 -27.890625 L 64.515625 -23.515625 L 72.078125 -23.515625 C 81.703125 -23.515625 89.117188 -23.289062 94.328125 -22.84375 C 99.535156 -22.394531 102.140625 -22.117188 102.140625 -22.015625 C 105.617188 -21.222656 108.28125 -19.765625 110.125 -17.640625 C 111.96875 -15.515625 112.945312 -12.15625 113.0625 -7.5625 C 113.289062 -1.957031 112.507812 2.101562 110.71875 4.625 C 108.925781 7.144531 105.394531 9.078125 100.125 10.421875 C 96.539062 11.203125 90.632812 11.925781 82.40625 12.59375 C 74.175781 13.269531 65.859375 13.609375 57.453125 13.609375 Z M 57.453125 13.609375 "/></g></g></g><g fill="#d2b48c" fill-opacity="1"><g transform="translate(765.27402, 814.87491)"><g><path d="M 39.140625 14.453125 C 33.992188 14.453125 29.125 13.414062 24.53125 11.34375 C 19.9375 9.269531 16.851562 5.375 15.28125 -0.34375 C 14.164062 -4.820312 13.019531 -13.109375 11.84375 -25.203125 C 10.664062 -37.296875 10.078125 -48.660156 10.078125 -59.296875 C 10.078125 -72.066406 11.085938 -81.140625 13.109375 -86.515625 C 15.796875 -94.242188 19.265625 -99.734375 23.515625 -102.984375 C 27.773438 -106.234375 33.710938 -108.363281 41.328125 -109.375 C 46.367188 -110.15625 51.96875 -110.546875 58.125 -110.546875 C 65.632812 -110.546875 72.832031 -109.957031 79.71875 -108.78125 C 86.601562 -107.601562 92.226562 -105.894531 96.59375 -103.65625 C 104.882812 -99.175781 110.988281 -93.40625 114.90625 -86.34375 C 118.832031 -79.289062 120.796875 -70.671875 120.796875 -60.484375 C 120.796875 -50.515625 119.644531 -42.28125 117.34375 -35.78125 C 115.050781 -29.289062 111.21875 -23.75 105.84375 -19.15625 C 109.195312 -14.113281 110.875 -9.859375 110.875 -6.390625 C 110.875 -4.148438 110.203125 -1.96875 108.859375 0.15625 C 107.515625 2.289062 105.441406 4.476562 102.640625 6.71875 C 98.835938 9.851562 94.753906 11.421875 90.390625 11.421875 C 85.796875 11.421875 81.394531 9.6875 77.1875 6.21875 C 72.988281 2.75 69.601562 -1.84375 67.03125 -7.5625 C 66.46875 -7.5625 65.316406 -7.585938 63.578125 -7.640625 C 61.847656 -7.703125 59.972656 -7.785156 57.953125 -7.890625 C 57.503906 -0.160156 55.960938 5.492188 53.328125 9.078125 C 50.703125 12.660156 45.972656 14.453125 39.140625 14.453125 Z M 65.1875 -38.140625 C 70.445312 -38.140625 74.925781 -40.015625 78.625 -43.765625 C 82.320312 -47.515625 84.171875 -51.96875 84.171875 -57.125 C 84.171875 -62.382812 82.320312 -66.863281 78.625 -70.5625 C 74.925781 -74.257812 70.445312 -76.109375 65.1875 -76.109375 C 60.03125 -76.109375 55.578125 -74.257812 51.828125 -70.5625 C 48.078125 -66.863281 46.203125 -62.382812 46.203125 -57.125 C 46.203125 -51.96875 48.078125 -47.515625 51.828125 -43.765625 C 55.578125 -40.015625 60.03125 -38.140625 65.1875 -38.140625 Z M 65.1875 -38.140625 "/></g></g><g transform="translate(891.106009, 814.87491)"><g><path d="M 49.734375 12.59375 C 42.785156 12.59375 36.507812 12.34375 30.90625 11.84375 C 25.3125 11.34375 21.28125 10.644531 18.8125 9.75 C 15.226562 8.625 12.148438 6.269531 9.578125 2.6875 C 7.003906 -0.894531 5.71875 -5.265625 5.71875 -10.421875 C 5.71875 -24.867188 14.898438 -32.09375 33.265625 -32.09375 L 32.921875 -39.484375 C 32.472656 -47.992188 32.25 -53.984375 32.25 -57.453125 C 32.25 -60.816406 32.421875 -63.226562 32.765625 -64.6875 C 23.242188 -64.6875 16.296875 -66.222656 11.921875 -69.296875 C 7.554688 -72.378906 5.265625 -78.175781 5.046875 -86.6875 C 5.046875 -91.613281 6.25 -95.976562 8.65625 -99.78125 C 11.0625 -103.59375 14.894531 -106.0625 20.15625 -107.1875 C 24.632812 -107.96875 33.316406 -108.359375 46.203125 -108.359375 C 57.398438 -108.359375 67.675781 -107.992188 77.03125 -107.265625 C 86.382812 -106.535156 92.234375 -105.5 94.578125 -104.15625 C 97.609375 -102.476562 100.1875 -100.378906 102.3125 -97.859375 C 104.4375 -95.335938 105.5 -91.78125 105.5 -87.1875 C 105.5 -81.144531 104.519531 -76.441406 102.5625 -73.078125 C 100.601562 -69.722656 97.492188 -67.375 93.234375 -66.03125 C 88.984375 -64.6875 83.21875 -64.015625 75.9375 -64.015625 C 76.050781 -61.878906 76.109375 -58.796875 76.109375 -54.765625 L 75.9375 -30.234375 C 82.65625 -30.234375 87.832031 -29.867188 91.46875 -29.140625 C 95.113281 -28.421875 98 -26.601562 100.125 -23.6875 C 102.25 -20.769531 103.3125 -16.125 103.3125 -9.75 C 103.3125 -5.71875 102.164062 -1.851562 99.875 1.84375 C 97.582031 5.539062 94.421875 8.003906 90.390625 9.234375 C 86.910156 10.128906 81.25 10.910156 73.40625 11.578125 C 65.570312 12.253906 57.679688 12.59375 49.734375 12.59375 Z M 49.734375 12.59375 "/></g></g></g><g fill="#d2b48c" fill-opacity="1"><g transform="translate(1001.649977, 814.87491)"><g><path d="M 54.59375 11.765625 C 41.488281 11.765625 29.5625 9.800781 18.8125 5.875 C 9.1875 2.070312 4.375 -4.082031 4.375 -12.59375 C 4.375 -14.613281 4.597656 -16.578125 5.046875 -18.484375 C 6.046875 -22.398438 8.3125 -25.503906 11.84375 -27.796875 C 15.375 -30.097656 20.109375 -31.472656 26.046875 -31.921875 C 28.285156 -32.140625 29.738281 -32.25 30.40625 -32.25 C 33.425781 -32.476562 35.46875 -32.816406 36.53125 -33.265625 C 37.601562 -33.710938 38.140625 -34.773438 38.140625 -36.453125 C 38.140625 -38.023438 37.15625 -39.285156 35.1875 -40.234375 C 33.226562 -41.179688 30.347656 -42.109375 26.546875 -43.015625 C 22.066406 -44.128906 18.453125 -45.242188 15.703125 -46.359375 C 12.960938 -47.484375 10.753906 -49.109375 9.078125 -51.234375 C 4.035156 -57.617188 1.515625 -64.566406 1.515625 -72.078125 C 1.515625 -76.328125 2.328125 -80.410156 3.953125 -84.328125 C 5.578125 -88.253906 7.898438 -91.84375 10.921875 -95.09375 C 19.546875 -104.050781 33.65625 -108.53125 53.25 -108.53125 C 73.519531 -108.414062 88.472656 -104.046875 98.109375 -95.421875 C 100.679688 -93.296875 102.582031 -90.890625 103.8125 -88.203125 C 105.050781 -85.515625 105.671875 -82.769531 105.671875 -79.96875 C 105.671875 -79.289062 105.613281 -78.5625 105.5 -77.78125 C 105.394531 -77 105.285156 -76.382812 105.171875 -75.9375 C 104.492188 -72.351562 103.0625 -69.582031 100.875 -67.625 C 98.695312 -65.664062 95.203125 -64.460938 90.390625 -64.015625 C 89.046875 -63.898438 87.03125 -63.953125 84.34375 -64.171875 L 80.640625 -64.34375 C 79.066406 -64.34375 77.890625 -64.117188 77.109375 -63.671875 C 76.328125 -63.222656 75.878906 -62.328125 75.765625 -60.984375 C 75.546875 -59.304688 76.691406 -57.515625 79.203125 -55.609375 C 81.722656 -53.703125 85.503906 -51.296875 90.546875 -48.390625 C 95.253906 -45.804688 98 -44.066406 98.78125 -43.171875 C 101.46875 -40.597656 103.484375 -37.488281 104.828125 -33.84375 C 106.171875 -30.207031 106.84375 -26.375 106.84375 -22.34375 C 106.84375 -15.175781 104.882812 -8.960938 100.96875 -3.703125 C 97.269531 1.117188 92.875 4.617188 87.78125 6.796875 C 82.6875 8.984375 75.882812 10.46875 67.375 11.25 C 63 11.59375 58.738281 11.765625 54.59375 11.765625 Z M 54.59375 11.765625 "/></g></g></g><g fill="#d2b48c" fill-opacity="1"><g transform="translate(1110.009953, 814.87491)"><g><path d="M 57.453125 13.609375 C 48.722656 13.609375 40.941406 13.160156 34.109375 12.265625 C 27.273438 11.367188 22.457031 9.910156 19.65625 7.890625 C 17.414062 6.328125 15.675781 3.863281 14.4375 0.5 C 13.207031 -2.851562 12.257812 -7.273438 11.59375 -12.765625 C 10.582031 -22.066406 10.078125 -34.664062 10.078125 -50.5625 C 10.078125 -65.90625 10.582031 -76.488281 11.59375 -82.3125 C 12.257812 -87.25 13.375 -91.253906 14.9375 -94.328125 C 16.507812 -97.410156 18.644531 -99.566406 21.34375 -100.796875 C 24.925781 -102.585938 30.941406 -103.957031 39.390625 -104.90625 C 47.847656 -105.863281 57.0625 -106.34375 67.03125 -106.34375 C 74.757812 -106.34375 81.953125 -106.0625 88.609375 -105.5 C 95.273438 -104.9375 100.175781 -104.207031 103.3125 -103.3125 C 107.238281 -102.082031 110.238281 -100.207031 112.3125 -97.6875 C 114.382812 -95.164062 115.421875 -91.5 115.421875 -86.6875 C 115.421875 -81.644531 114.492188 -77.523438 112.640625 -74.328125 C 110.796875 -71.140625 108.082031 -68.988281 104.5 -67.875 C 104.050781 -67.757812 102.898438 -67.503906 101.046875 -67.109375 C 99.203125 -66.722656 96.40625 -66.359375 92.65625 -66.015625 C 88.90625 -65.679688 84.394531 -65.515625 79.125 -65.515625 C 74.53125 -65.515625 69.378906 -65.6875 63.671875 -66.03125 L 63.671875 -61.15625 C 69.492188 -61.601562 74.867188 -61.828125 79.796875 -61.828125 C 85.066406 -61.828125 89.179688 -61.628906 92.140625 -61.234375 C 95.109375 -60.835938 96.59375 -60.585938 96.59375 -60.484375 C 100.40625 -59.242188 103.265625 -57.671875 105.171875 -55.765625 C 107.078125 -53.867188 108.03125 -50.566406 108.03125 -45.859375 C 108.03125 -41.046875 107.382812 -37.546875 106.09375 -35.359375 C 104.800781 -33.179688 102.140625 -31.363281 98.109375 -29.90625 C 97.773438 -29.789062 96.679688 -29.566406 94.828125 -29.234375 C 92.984375 -28.898438 90.070312 -28.59375 86.09375 -28.3125 C 82.125 -28.03125 77.113281 -27.890625 71.0625 -27.890625 L 64.515625 -27.890625 L 64.515625 -23.515625 L 72.078125 -23.515625 C 81.703125 -23.515625 89.117188 -23.289062 94.328125 -22.84375 C 99.535156 -22.394531 102.140625 -22.117188 102.140625 -22.015625 C 105.617188 -21.222656 108.28125 -19.765625 110.125 -17.640625 C 111.96875 -15.515625 112.945312 -12.15625 113.0625 -7.5625 C 113.289062 -1.957031 112.507812 2.101562 110.71875 4.625 C 108.925781 7.144531 105.394531 9.078125 100.125 10.421875 C 96.539062 11.203125 90.632812 11.925781 82.40625 12.59375 C 74.175781 13.269531 65.859375 13.609375 57.453125 13.609375 Z M 57.453125 13.609375 "/></g></g></g></svg>